<svg width="260.000000pt" height="57.000000pt" viewBox="0 0 260.000000 57.000000" xmlns="http://www.w3.org/2000/svg">
  <g transform="translate(0.000000,57.000000) scale(0.100000,-0.100000)" fill="#f44336" stroke="none">
    <path d="M0 285 l0 -285 1300 0 1300 0 0 285 0 285 -1300 0 -1300 0 0 -285z
m320 65 c0 -33 0 -63 0 -67 0 -5 -8 -8 -17 -8 l-18 0 3 28 3 27 -14 0 c-29 0
-37 -59 -11 -84 20 -21 58 -20 79 1 l17 16 -5 35 -6 34 14 -12 c43 -36 -21
-122 -76 -105 -66 21 -74 135 -9 135 6 0 10 9 10 20 l0 20 -16 0 c-8 0 -29
-13 -45 -29 l-29 -29 0 -47 0 -47 29 -29 29 -29 47 0 47 0 29 29 29 29 0 36
c0 19 -5 47 -10 62 -15 38 -5 42 14 5 22 -42 20 -82 -7 -122 l-22 -33 -39 -15
-38 -15 -41 15 -41 14 -23 34 c-53 78 5 189 100 191 l17 0 0 -60z m260 21 c0
-11 6 -22 13 -25 l12 -6 -12 -6 c-18 -8 -16 -44 2 -44 l15 0 0 20 0 20 20 0
20 0 0 19 0 20 -22 4 c-13 2 11 4 52 4 41 0 65 -2 53 -4 l-23 -4 0 -20 0 -19
30 0 c17 0 30 5 30 10 0 6 20 10 45 10 l45 0 0 20 0 20 15 0 15 0 0 -20 0 -20
70 0 70 0 0 20 0 20 15 0 15 0 0 -20 0 -20 20 0 20 0 0 15 0 15 50 0 50 0 0
-65 0 -65 16 0 15 0 -3 -32 -3 -33 -25 0 -25 0 -3 88 -3 87 -19 0 -20 0 0 -62
c-1 -35 -7 -74 -14 -87 l-13 -23 -37 -4 -36 -3 0 15 c0 8 -5 23 -12 33 l-12
20 12 26 c7 14 12 33 12 41 l0 15 -22 -3 -23 -3 -3 -37 c-2 -21 -7 -38 -13
-38 -5 0 -9 -17 -9 -37 l0 -38 -80 0 -80 0 0 31 0 32 -16 6 c-29 11 -34 6 -34
-34 l0 -40 -15 0 c-8 0 -15 5 -15 10 0 6 -18 10 -40 10 -22 0 -40 -4 -40 -10
0 -5 -7 -10 -15 -10 l-15 0 0 50 0 50 -15 0 -15 0 0 -50 0 -50 -15 0 -15 0 0
24 c0 13 -6 26 -12 29 l-13 4 13 48 13 48 -13 9 -13 10 13 5 c6 2 12 13 12 24
0 10 7 19 15 19 8 0 15 -9 15 -19z m790 4 l0 -15 40 0 40 0 0 -64 0 -64 13 -5
12 -4 -11 -19 -11 -19 -54 0 -54 0 -3 28 -3 27 -25 0 c-13 0 -24 -4 -24 -10 0
-5 -7 -10 -15 -10 l-15 0 0 70 0 70 40 0 40 0 0 15 c0 8 7 15 15 15 8 0 15 -7
15 -15z" />
    <path d="M800 325 c0 -8 7 -15 15 -15 8 0 15 7 15 15 0 8 -7 15 -15 15 -8 0
-15 -7 -15 -15z" />
    <path d="M930 325 c0 -8 7 -15 15 -15 8 0 15 7 15 15 0 8 -7 15 -15 15 -8 0
-15 -7 -15 -15z" />
    <path d="M1062 313 c2 -10 11 -19 21 -21 l17 -3 0 20 0 21 -21 0 -20 0 3 -17z" />
    <path d="M750 290 l0 -30 15 0 c8 0 15 3 15 8 0 4 3 17 6 30 l6 22 -21 0 -21
0 0 -30z" />
    <path d="M1060 239 l0 -30 18 3 17 3 3 28 3 27 -20 0 -21 0 0 -31z" />
    <path d="M652 240 c-20 -32 -14 -40 28 -40 l40 0 0 16 c0 37 -49 54 -68 24z" />
    <path d="M830 225 l0 -15 50 0 50 0 0 15 0 15 -50 0 -50 0 0 -15z" />
    <path d="M1290 330 l0 -20 25 0 25 0 0 20 0 20 -25 0 -25 0 0 -20z" />
    <path d="M1370 330 l0 -20 25 0 25 0 0 20 0 20 -25 0 -25 0 0 -20z" />
    <path d="M1290 275 l0 -15 25 0 25 0 0 15 0 15 -25 0 -25 0 0 -15z" />
    <path d="M1370 275 l0 -15 25 0 25 0 0 15 0 15 -25 0 -25 0 0 -15z" />
    <path d="M1370 220 l0 -20 35 0 35 0 0 20 0 20 -35 0 -35 0 0 -20z" />
  </g>
  <g transform="translate(0.000000,57.000000) scale(0.100000,-0.100000)" fill="#fffefe" stroke="none">
    <path d="M240 402 l-35 -17 -18 -35 -18 -35 4 -44 c6 -56 34 -92 83 -110 l40
-14 38 7 39 7 28 28 28 28 7 39 7 38 -14 40 -14 41 -19 3 -19 4 7 -29 c4 -15
10 -45 13 -65 l5 -37 -30 -31 -30 -30 -37 0 -37 0 -29 29 -29 29 0 37 0 37 29
29 c16 16 35 29 43 29 l13 -1 -20 -14 c-37 -27 -45 -36 -51 -60 -20 -79 83
-137 140 -79 35 34 28 114 -10 114 l-16 0 6 -34 7 -34 -16 -16 c-36 -36 -87 0
-69 48 3 9 10 16 15 16 5 0 4 -9 -3 -21 l-13 -20 19 -14 19 -14 18 10 c21 11
25 34 9 44 -5 3 -10 31 -10 61 l0 54 -22 0 c-13 0 -39 -8 -58 -18z" />
    <path d="M550 380 l0 -20 -15 0 c-17 0 -21 -36 -4 -42 l12 -4 -12 -21 c-6 -12
-11 -31 -11 -42 l0 -21 15 0 15 0 0 -35 0 -35 20 0 20 0 0 50 c0 28 5 50 10
50 6 0 10 -22 10 -50 l0 -50 14 0 c8 0 18 4 21 10 8 13 62 13 70 0 3 -5 13
-10 21 -10 l14 0 0 90 0 90 -15 0 c-8 0 -15 5 -15 10 0 6 9 10 20 10 l20 0 0
15 0 15 -79 0 -80 0 -4 -17 -5 -18 -1 23 -1 22 -20 0 -20 0 0 -20z m90 -30 c0
-5 -7 -10 -15 -10 -8 0 -15 5 -15 10 0 6 7 10 15 10 8 0 15 -4 15 -10z m-30
-40 c0 -5 -4 -10 -10 -10 -5 0 -10 5 -10 10 0 6 5 10 10 10 6 0 10 -4 10 -10z
m96 -80 c8 0 12 -4 9 -10 -3 -5 -19 -10 -35 -10 -16 0 -32 5 -35 10 -3 6 1 10
9 10 9 0 16 8 16 18 l1 17 10 -17 c5 -10 17 -18 25 -18z" />
    <path d="M850 381 l0 -21 -40 0 -41 0 2 -32 c1 -18 -2 -46 -6 -61 l-7 -28 21
-6 21 -5 0 -32 0 -31 85 -1 85 0 0 37 0 37 15 6 c8 3 15 1 15 -4 0 -6 7 -10
15 -10 l15 0 0 -30 0 -30 43 3 42 2 12 35 c7 19 12 59 12 88 1 87 20 58 23
-35 l3 -88 35 0 35 0 3 43 3 42 -15 0 c-8 0 -17 -10 -19 -22 -2 -13 -5 16 -6
65 l-1 87 -50 0 -50 0 0 -45 c0 -42 -11 -58 -25 -35 -3 6 -1 10 4 10 6 0 11 9
11 20 0 11 -4 20 -10 20 -5 0 -10 9 -10 20 l0 20 -20 0 -20 0 0 -15 c0 -9 -7
-18 -15 -21 -18 -7 -20 -41 -4 -46 l12 -4 -14 -24 -14 -25 -3 48 -3 47 -47 2
-47 1 43 4 c46 5 58 23 15 23 -16 0 -45 3 -65 6 l-38 7 0 -22z m-30 -56 c0 -3
-2 -5 -5 -5 -3 0 -5 2 -5 5 0 3 2 5 5 5 3 0 5 -2 5 -5z m130 0 c0 -3 -2 -5 -5
-5 -3 0 -5 2 -5 5 0 3 2 5 5 5 3 0 5 -2 5 -5z m140 -79 c0 -8 -4 -18 -10 -21
-5 -3 -10 3 -10 14 0 12 5 21 10 21 6 0 10 -6 10 -14z m-170 -11 l0 -15 -40 0
-40 0 0 15 0 15 40 0 40 0 0 -15z" />
    <path d="M1330 385 l0 -15 -40 0 -40 0 0 -80 0 -80 19 0 c11 0 23 5 26 10 3 6
12 10 20 10 l14 0 3 -27 3 -28 65 0 65 0 9 28 10 29 -17 9 -17 10 0 59 0 60
-35 0 -36 0 -5 15 c-4 8 -15 15 -25 15 -10 0 -19 -7 -19 -15z m0 -55 c0 -5 -9
-10 -21 -10 -11 0 -17 5 -14 10 3 6 13 10 21 10 8 0 14 -4 14 -10z m80 0 c0
-5 -9 -10 -21 -10 -11 0 -17 5 -14 10 3 6 13 10 21 10 8 0 14 -4 14 -10z m-87
-57 c-7 -2 -19 -2 -25 0 -7 3 -2 5 12 5 14 0 19 -2 13 -5z m80 0 c-7 -2 -19
-2 -25 0 -7 3 -2 5 12 5 14 0 19 -2 13 -5z m27 -53 c0 -5 -11 -10 -25 -10 -14
0 -25 5 -25 10 0 6 11 10 25 10 14 0 25 -4 25 -10z" />
  </g>
  <g transform="translate(0.000000,57.000000) scale(0.100000,-0.100000)" fill="#fef4f4" stroke="none">
    <path d="M253 410 c-13 -5 -23 -12 -23 -15 0 -9 16 -5 36 10 22 16 19 18 -13
5z" />
    <path d="M1330 392 c0 -4 9 -8 20 -8 11 0 20 4 20 8 0 4 -9 8 -20 8 -11 0 -20
-4 -20 -8z" />
    <path d="M280 380 c0 -5 5 -10 10 -10 6 0 10 5 10 10 0 6 -4 10 -10 10 -5 0
-10 -4 -10 -10z" />
    <path d="M1190 301 c0 -50 5 -93 10 -96 l10 -6 0 95 0 96 -10 0 -10 0 0 -89z" />
    <path d="M600 366 c0 -6 11 -11 25 -11 14 0 25 3 25 6 0 4 -11 9 -25 11 l-25
5 0 -11z" />
    <path d="M733 372 c-13 -2 -23 -7 -23 -11 0 -5 11 -6 25 -3 l25 4 0 -11 c0 -6
-6 -11 -12 -11 l-13 0 3 -87 3 -88 -12 13 c-7 6 -30 12 -50 12 -21 0 -41 -6
-46 -12 l-8 -13 -5 55 c-4 41 -20 78 -20 45 0 -3 0 -28 0 -56 l0 -51 23 7 c28
10 86 10 115 0 l22 -7 0 41 0 40 15 -5 15 -6 0 -34 0 -34 13 0 13 0 -5 40 c-3
23 -9 39 -12 38 -13 -6 -39 26 -39 48 l0 24 14 0 14 0 -6 23 c-8 31 -23 43
-49 39z" />
    <path d="M216 348 c-18 -25 -21 -42 -6 -33 6 3 10 -2 10 -11 l0 -18 12 12 13
13 -15 9 -14 9 18 20 c11 12 14 21 8 21 -6 0 -18 -10 -26 -22z" />
    <path d="M540 360 c0 -5 5 -10 10 -10 6 0 10 5 10 10 0 6 -4 10 -10 10 -5 0
-10 -4 -10 -10z" />
    <path d="M670 360 c0 -5 5 -10 10 -10 6 0 10 5 10 10 0 6 -4 10 -10 10 -5 0
-10 -4 -10 -10z" />
    <path d="M1004 363 l-22 -4 -5 -25 -4 -24 13 0 c8 0 14 6 14 14 0 7 10 21 23
29 22 16 19 18 -19 10z" />
    <path d="M1060 359 c0 -5 5 -9 11 -9 6 0 9 -7 5 -15 l-5 -15 14 0 c8 0 15 8
15 19 l0 19 -20 5 c-11 3 -20 1 -20 -4z" />
    <path d="M180 340 c-6 -11 -9 -26 -7 -33 3 -7 10 1 16 17 14 35 7 47 -9 16z" />
    <path d="M385 338 l7 -23 -13 13 c-22 21 -30 13 -13 -13 l16 -24 14 14 15 15
-11 20 c-14 27 -23 25 -15 -2z" />
    <path d="M416 340 c3 -14 10 -29 15 -34 l9 -10 0 15 c0 8 -7 24 -16 35 l-15
19 7 -25z" />
    <path d="M279 338 c0 -2 -2 -15 -4 -30 l-4 -28 15 -15 c16 -16 40 -11 48 11 6
17 -3 44 -15 44 -12 0 -11 -17 1 -25 l11 -7 -12 -14 -12 -14 -14 11 -14 12 11
11 c13 13 13 46 0 46 -5 0 -10 -1 -11 -2z" />
    <path d="M600 315 c0 -14 4 -25 9 -25 5 0 11 11 13 25 l5 25 -13 0 -14 0 0
-25z" />
    <path d="M820 328 c-2 -5 -3 -12 -4 -18 0 -5 -10 -16 -21 -24 l-20 -15 18 -1
c9 0 17 5 17 10 0 6 9 10 19 10 11 0 23 5 26 10 3 6 0 10 -9 10 -8 0 -17 6
-19 13 -3 6 -6 9 -7 5z" />
    <path d="M936 318 c3 -4 9 -8 15 -8 5 0 9 4 9 8 0 5 -7 9 -15 9 -8 0 -12 -4
-9 -9z" />
    <path d="M1020 319 c0 -5 5 -7 10 -4 6 3 10 8 10 11 0 2 -4 4 -10 4 -5 0 -10
-5 -10 -11z" />
    <path d="M1280 320 c0 -5 5 -10 10 -10 6 0 10 5 10 10 0 6 -4 10 -10 10 -5 0
-10 -4 -10 -10z" />
    <path d="M1325 320 c-3 -5 -1 -10 4 -10 6 0 11 5 11 10 0 6 -2 10 -4 10 -3 0
-8 -4 -11 -10z" />
    <path d="M1360 320 c0 -5 5 -10 10 -10 6 0 10 5 10 10 0 6 -4 10 -10 10 -5 0
-10 -4 -10 -10z" />
    <path d="M1405 320 c-3 -5 -1 -10 4 -10 6 0 11 5 11 10 0 6 -2 10 -4 10 -3 0
-8 -4 -11 -10z" />
    <path d="M530 294 c0 -8 5 -12 10 -9 6 3 10 10 10 16 0 5 -4 9 -10 9 -5 0 -10
-7 -10 -16z" />
    <path d="M930 290 c39 -21 50 -24 50 -12 0 11 -46 32 -68 32 l-17 -1 35 -19z" />
    <path d="M855 280 c-3 -5 -1 -10 4 -10 6 0 11 5 11 10 0 6 -2 10 -4 10 -3 0
-8 -4 -11 -10z" />
    <path d="M1081 276 l-12 -14 15 -5 c16 -7 26 1 26 20 0 17 -14 17 -29 -1z" />
    <path d="M1280 280 c0 -5 5 -10 10 -10 6 0 10 5 10 10 0 6 -4 10 -10 10 -5 0
-10 -4 -10 -10z" />
    <path d="M1360 280 c0 -5 5 -10 10 -10 6 0 10 5 10 10 0 6 -4 10 -10 10 -5 0
-10 -4 -10 -10z" />
    <path d="M220 266 c0 -9 -4 -14 -10 -11 -15 9 -12 -9 6 -31 l16 -19 -7 19 -6
19 13 8 13 8 -13 13 -12 12 0 -18z" />
    <path d="M376 271 l-9 -13 12 -7 c6 -4 9 -16 6 -27 l-7 -19 16 19 c17 22 21
41 7 31 -5 -3 -11 3 -13 12 l-3 18 -9 -14z" />
    <path d="M665 270 c-4 -6 -5 -13 -4 -14 46 -34 69 -43 69 -26 0 6 -6 10 -14
10 -8 0 -21 9 -29 21 l-15 20 -7 -11z" />
    <path d="M170 259 c0 -8 7 -24 16 -35 l15 -19 -7 25 c-3 14 -10 29 -15 35 l-9
9 0 -15z" />
    <path d="M421 246 c-6 -16 -10 -31 -7 -33 7 -8 28 37 23 50 -3 7 -10 -1 -16
-17z" />
    <path d="M630 259 c0 -5 5 -7 10 -4 6 3 10 8 10 11 0 2 -4 4 -10 4 -5 0 -10
-5 -10 -11z" />
    <path d="M979 254 l-14 -18 18 7 17 6 0 -15 0 -15 17 3 c9 2 18 9 21 17 l5 14
-16 -6 -16 -6 -9 15 -9 15 -14 -17z" />
    <path d="M540 249 c0 -5 -4 -7 -10 -4 -5 3 -10 -1 -10 -9 0 -9 7 -16 15 -16 8
0 15 2 15 4 0 2 3 11 6 20 3 9 1 16 -5 16 -6 0 -11 -5 -11 -11z" />
    <path d="M1127 253 c-2 -5 -7 -21 -11 -38 l-6 -30 15 19 c8 11 15 28 15 38 0
19 -6 23 -13 11z" />
    <path d="M830 238 l0 -13 54 0 53 0 -4 13 -5 12 -49 0 -49 0 0 -12z" />
    <path d="M1410 243 c-19 -3 -39 -8 -44 -13 l-9 -9 38 6 38 6 -6 -16 c-4 -10
-2 -17 3 -17 6 0 10 3 11 8 0 4 2 15 4 25 2 9 3 16 2 15 -1 0 -18 -3 -37 -5z" />
    <path d="M630 230 c0 -5 5 -10 10 -10 6 0 10 5 10 10 0 6 -4 10 -10 10 -5 0
-10 -4 -10 -10z" />
    <path d="M1087 233 c-4 -3 -7 -11 -7 -17 l0 -10 12 12 c6 6 9 14 7 17 -3 3 -9
2 -12 -2z" />
    <path d="M1286 231 c-3 -4 8 -8 23 -7 16 1 27 4 24 9 -6 10 -41 9 -47 -2z" />
    <path d="M1457 196 c-10 -14 -13 -26 -8 -26 13 0 33 28 29 41 -2 6 -12 0 -21
-15z" />
    <path d="M255 190 c3 -5 11 -10 16 -10 6 0 7 5 4 10 -3 6 -11 10 -16 10 -6 0
-7 -4 -4 -10z" />
    <path d="M335 190 c-3 -5 -2 -10 4 -10 5 0 13 5 16 10 3 6 2 10 -4 10 -5 0
-13 -4 -16 -10z" />
    <path d="M1160 192 c0 -12 19 -26 26 -19 2 2 -2 10 -11 17 l-15 12 0 -10z" />
    <path d="M344 165 l-19 -14 23 6 c12 3 25 9 28 14 8 14 -10 11 -32 -6z" />
    <path d="M250 166 c0 -2 7 -7 16 -10 l15 -6 -6 10 c-6 10 -25 14 -25 6z" />
  </g>
  <g transform="translate(0.000000,57.000000) scale(0.100000,-0.100000)" fill="#fab7b2" stroke="none">
    <path d="M295 410 c27 -12 35 -12 35 0 0 6 -12 10 -27 9 l-28 0 20 -9z" />
    <path d="M230 400 c-8 -5 -12 -12 -9 -15 4 -3 12 1 19 10 14 17 11 19 -10 5z" />
    <path d="M852 380 c0 -14 2 -19 5 -12 2 6 2 18 0 25 -3 6 -5 1 -5 -13z" />
    <path d="M1062 380 c0 -14 2 -19 5 -12 2 6 2 18 0 25 -3 6 -5 1 -5 -13z" />
    <path d="M601 377 c0 -10 -5 -15 -11 -12 -5 3 -10 2 -10 -4 0 -5 6 -11 13 -14
l12 -4 -14 -17 -14 -17 12 -12 12 -12 -7 19 -7 19 10 -6 c15 -9 21 12 12 48
-4 17 -7 22 -8 12z" />
    <path d="M970 380 c0 -7 3 -10 7 -7 3 4 3 10 0 14 -4 3 -7 0 -7 -7z" />
    <path d="M380 368 c0 -6 3 -8 7 -5 3 4 15 -1 26 -10 l20 -18 -12 23 c-12 23
-41 31 -41 10z" />
    <path d="M186 354 l-6 -17 15 13 c17 14 19 20 6 20 -5 0 -12 -7 -15 -16z" />
    <path d="M533 363 c-16 -6 -17 -43 -2 -43 5 0 7 -4 4 -10 -3 -5 -1 -10 4 -10
15 0 14 27 -1 33 l-13 5 15 11 c16 11 12 21 -7 14z" />
    <path d="M670 345 c0 -8 5 -15 10 -15 6 0 10 7 10 15 0 8 -4 15 -10 15 -5 0
-10 -7 -10 -15z" />
    <path d="M1132 303 l2 -58 3 53 c6 82 22 61 26 -35 l3 -88 2 93 2 92 -20 0
-20 0 2 -57z" />
    <path d="M236 334 l-6 -17 15 13 c17 14 19 20 6 20 -5 0 -12 -7 -15 -16z" />
    <path d="M343 333 l-13 -5 11 -19 c5 -11 7 -28 4 -39 -11 -36 -68 -36 -80 0
-7 21 4 52 16 44 5 -3 9 0 9 5 0 14 -13 14 -28 -1 -29 -29 1 -88 45 -88 11 0
28 9 38 20 l18 19 -7 32 -6 31 16 -6 15 -6 -6 10 c-7 11 -13 11 -32 3z" />
    <path d="M796 325 l-5 -15 15 0 c8 0 13 4 10 9 l-6 9 70 0 c39 0 70 -4 70 -9
0 -5 4 -9 10 -9 5 0 7 7 4 15 l-6 15 -78 0 -78 0 -6 -15z" />
    <path d="M1000 331 c0 -5 7 -11 15 -15 8 -3 15 -1 15 3 0 5 -7 11 -15 15 -8 3
-15 1 -15 -3z" />
    <path d="M1078 333 c-19 -5 -25 -33 -7 -33 5 0 7 5 3 12 l-7 11 16 -6 17 -6 0
14 c0 8 -1 14 -2 14 -2 -1 -11 -3 -20 -6z" />
    <path d="M172 290 c0 -19 2 -27 5 -17 2 9 2 25 0 35 -3 9 -5 1 -5 -18z" />
    <path d="M201 304 l1 -19 5 13 c3 7 2 16 -1 19 -3 4 -6 -2 -5 -13z" />
    <path d="M432 280 c0 -19 2 -27 5 -17 2 9 2 25 0 35 -3 9 -5 1 -5 -18z" />
    <path d="M630 290 c0 -11 5 -20 10 -20 6 0 10 9 10 20 0 11 -4 20 -10 20 -5 0
-10 -9 -10 -20z" />
    <path d="M672 279 l3 -32 23 -15 22 -14 0 11 c0 6 -7 11 -15 11 l-15 0 0 35
c0 19 -5 35 -11 35 l-10 0 3 -31z" />
    <path d="M710 300 c0 -5 5 -10 10 -10 6 0 10 5 10 10 0 6 -4 10 -10 10 -5 0
-10 -4 -10 -10z" />
    <path d="M810 293 l-24 -17 -4 12 c-2 7 -8 12 -13 12 -4 0 -6 -7 -3 -15 8 -21
37 -19 65 5 29 24 13 26 -21 3z" />
    <path d="M924 295 c11 -8 25 -15 30 -15 6 0 2 7 -8 15 -11 8 -25 15 -30 15 -6
0 -2 -7 8 -15z" />
    <path d="M1002 280 l-13 -21 8 -14 8 -14 11 34 c12 39 6 46 -14 15z" />
    <path d="M1290 283 c0 -5 11 -8 25 -8 14 0 25 3 25 8 0 4 -11 7 -25 7 -14 0
-25 -3 -25 -7z" />
    <path d="M1370 283 c0 -5 11 -8 25 -8 14 0 25 3 25 8 0 4 -11 7 -25 7 -14 0
-25 -3 -25 -7z" />
    <path d="M201 264 l1 -19 5 13 c3 7 2 16 -1 19 -3 4 -6 -2 -5 -13z" />
    <path d="M401 264 l1 -19 5 13 c3 7 2 16 -1 19 -3 4 -6 -2 -5 -13z" />
    <path d="M520 265 c0 -8 2 -15 4 -15 2 0 6 7 10 15 3 8 1 15 -4 15 -6 0 -10
-7 -10 -15z" />
    <path d="M710 270 c0 -5 5 -10 10 -10 6 0 10 5 10 10 0 6 -4 10 -10 10 -5 0
-10 -4 -10 -10z" />
    <path d="M1078 273 l-18 -4 0 -50 c0 -28 4 -48 9 -45 12 8 21 46 10 46 -5 0
-9 9 -9 20 0 25 17 26 23 3 l5 -18 1 28 c0 15 0 26 -1 26 -2 -1 -11 -3 -20 -6z" />
    <path d="M830 250 c0 -5 23 -10 50 -10 28 0 50 5 50 10 0 6 -22 10 -50 10 -27
0 -50 -4 -50 -10z" />
    <path d="M236 235 c4 -8 11 -15 16 -15 l10 0 -12 15 c-7 8 -14 15 -16 15 -2 0
-1 -7 2 -15z" />
    <path d="M186 215 c4 -8 11 -15 16 -15 l10 0 -12 15 c-7 8 -14 15 -16 15 -2 0
-1 -7 2 -15z" />
    <path d="M410 215 l-12 -15 10 0 c5 0 12 7 16 15 3 8 4 15 2 15 -2 0 -9 -7
-16 -15z" />
    <path d="M1250 220 c0 -5 5 -10 11 -10 5 0 7 5 4 10 -3 6 -8 10 -11 10 -2 0
-4 -4 -4 -10z" />
    <path d="M1430 221 l0 -13 -30 4 c-16 3 -30 1 -30 -4 0 -12 58 -10 65 3 4 6 4
13 1 16 -3 4 -6 1 -6 -6z" />
    <path d="M1471 214 l1 -19 5 13 c3 7 2 16 -1 19 -3 4 -6 -2 -5 -13z" />
    <path d="M1231 204 l1 -19 5 13 c3 7 2 16 -1 19 -3 4 -6 -2 -5 -13z" />
    <path d="M830 200 c0 -5 23 -10 50 -10 28 0 50 5 50 10 0 6 -22 10 -50 10 -27
0 -50 -4 -50 -10z" />
    <path d="M220 181 c0 -5 7 -12 16 -15 l17 -6 -13 15 c-14 17 -20 19 -20 6z" />
    <path d="M278 183 c7 -3 16 -2 19 1 4 3 -2 6 -13 5 l-19 -1 13 -5z" />
    <path d="M318 183 c7 -3 16 -2 19 1 4 3 -2 6 -13 5 l-19 -1 13 -5z" />
    <path d="M370 175 l-13 -15 17 6 c9 3 16 10 16 15 0 13 -6 11 -20 -6z" />
    <path d="M830 173 c0 -5 23 -8 50 -8 28 0 50 3 50 8 0 4 -22 7 -50 7 -27 0
-50 -3 -50 -7z" />
    <path d="M293 153 c9 -2 23 -2 30 0 6 3 -1 5 -18 5 -16 0 -22 -2 -12 -5z" />
  </g>
  <g transform="translate(0.000000,57.000000) scale(0.100000,-0.100000)" fill="#f88980" stroke="none">
    <path d="M1200 307 c0 -48 4 -87 9 -87 l9 0 -5 83 c-7 109 -13 111 -13 4z" />
    <path d="M239 367 c-9 -7 -21 -23 -28 -36 l-13 -23 11 6 11 7 0 -18 0 -18 10
15 9 14 -11 7 c-6 4 -7 12 -4 18 4 6 12 9 17 6 5 -4 17 -1 26 5 l18 11 -25 -7
-25 -7 14 17 c16 19 12 20 -10 3z" />
    <path d="M756 356 c3 -9 2 -16 -2 -16 -5 0 -8 -39 -6 -86 l4 -86 -21 7 -21 6
0 -10 c0 -6 11 -11 25 -11 l25 0 0 40 0 39 15 -5 15 -6 0 -34 0 -34 25 0 c14
0 25 4 25 9 0 5 -9 7 -20 4 l-20 -5 0 36 0 36 -15 0 c-8 0 -15 4 -15 9 0 5 -3
16 -6 24 l-5 15 20 7 c24 7 28 25 6 25 -8 0 -15 9 -15 19 0 11 -4 23 -10 26
l-10 6 6 -15z m21 -53 c-4 -3 -10 -3 -14 0 -3 4 0 7 7 7 7 0 10 -3 7 -7z" />
    <path d="M1089 363 c-1 -5 0 -21 1 -37 l2 -28 -11 6 c-6 4 -11 2 -11 -3 0 -6
5 -11 10 -11 6 0 11 -10 11 -22 l1 -23 9 40 c11 55 11 85 -1 85 -5 0 -10 -3
-11 -7z" />
    <path d="M520 355 c0 -3 2 -5 5 -5 3 0 5 2 5 5 0 3 -2 5 -5 5 -3 0 -5 -2 -5
-5z" />
    <path d="M600 355 c0 -3 2 -5 5 -5 3 0 5 2 5 5 0 3 -2 5 -5 5 -3 0 -5 -2 -5
-5z" />
    <path d="M990 340 c0 -11 -5 -20 -11 -20 -6 0 -9 -7 -5 -15 l5 -15 -17 0 c-10
0 -23 5 -30 12 l-12 12 0 -11 c0 -6 16 -17 36 -23 l35 -12 -5 -13 -5 -14 15 6
15 5 -10 12 c-11 13 -9 41 2 52 11 11 8 44 -3 44 -5 0 -10 -9 -10 -20z" />
    <path d="M176 334 c-4 -9 -4 -19 -1 -22 2 -3 7 3 11 12 4 9 4 19 1 22 -2 3 -7
-3 -11 -12z" />
    <path d="M420 340 c0 -8 5 -22 10 -30 l10 -15 0 15 c0 8 -5 22 -10 30 l-10 15
0 -15z" />
    <path d="M383 325 c-6 -6 -8 -17 -5 -22 l7 -11 12 13 c6 6 8 17 5 22 l-7 11
-12 -13z" />
    <path d="M594 309 c0 -10 4 -19 8 -19 4 0 8 6 8 14 0 8 -4 17 -8 20 -4 2 -8
-4 -8 -15z" />
    <path d="M267 293 c3 -7 6 -13 8 -13 2 0 5 6 8 13 3 8 -1 14 -8 14 -7 0 -11
-6 -8 -14z" />
    <path d="M327 293 c3 -7 6 -13 8 -13 2 0 5 6 8 13 3 8 -1 14 -8 14 -7 0 -11
-6 -8 -14z" />
    <path d="M530 295 c0 -8 2 -15 4 -15 2 0 6 7 10 15 3 8 1 15 -4 15 -6 0 -10
-7 -10 -15z" />
    <path d="M816 295 c-8 -8 -19 -15 -25 -15 -6 0 -11 -4 -11 -10 l0 -10 25 12
c14 6 25 15 25 19 0 4 8 10 18 12 l17 5 -17 1 c-9 0 -23 -6 -32 -14z" />
    <path d="M220 267 l0 -18 -11 7 c-6 3 -4 -7 5 -24 8 -16 23 -32 32 -36 l17 -6
-11 13 c-7 8 -8 18 -4 22 4 5 2 5 -5 1 -15 -8 -29 14 -15 23 l11 7 -9 14 -10
15 0 -18z" />
    <path d="M378 268 l-7 -18 10 0 c6 0 9 -6 6 -12 -2 -7 -11 -11 -18 -10 -8 2
-11 0 -7 -4 4 -4 3 -13 -4 -21 l-11 -13 17 6 c9 4 24 20 32 36 9 17 11 27 6
24 -6 -3 -12 2 -14 11 l-4 18 -6 -17z" />
    <path d="M668 269 l-6 -15 21 -14 22 -13 -11 14 c-6 8 -13 21 -16 28 l-4 15
-6 -15z" />
    <path d="M1280 269 c0 -5 14 -9 30 -9 39 0 39 15 0 16 -17 1 -30 -3 -30 -7z" />
    <path d="M1360 269 c0 -5 14 -9 30 -9 39 0 39 15 0 16 -17 1 -30 -3 -30 -7z" />
    <path d="M170 260 c0 -8 5 -22 10 -30 l10 -15 0 15 c0 8 -5 22 -10 30 l-10 15
0 -15z" />
    <path d="M598 215 l4 -55 24 0 c13 0 24 5 24 11 l0 10 -20 -6 -20 -6 0 50 c0
28 -3 51 -7 51 -5 0 -6 -25 -5 -55z" />
    <path d="M427 253 c-4 -3 -7 -13 -7 -22 l1 -16 10 18 c11 19 8 33 -4 20z" />
    <path d="M1120 218 l-15 -33 -19 3 -18 3 7 -10 c17 -28 74 27 63 61 -2 5 -10
-5 -18 -24z" />
    <path d="M520 226 c0 -9 5 -16 10 -16 6 0 10 4 10 9 0 6 -4 13 -10 16 -5 3
-10 -1 -10 -9z" />
    <path d="M635 229 c-4 -6 -5 -13 -2 -16 7 -7 27 6 27 18 0 12 -17 12 -25 -2z" />
    <path d="M1003 225 c2 -5 11 -11 20 -13 l17 -3 0 15 0 15 -20 -2 c-11 -1 -19
-6 -17 -12z" />
    <path d="M1080 225 l-12 -15 10 0 c5 0 12 7 16 15 3 8 4 15 2 15 -2 0 -9 -7
-16 -15z" />
    <path d="M920 225 c0 -3 2 -5 5 -5 3 0 5 2 5 5 0 3 -2 5 -5 5 -3 0 -5 -2 -5
-5z" />
    <path d="M1430 225 c0 -3 2 -5 5 -5 3 0 5 2 5 5 0 3 -2 5 -5 5 -3 0 -5 -2 -5
-5z" />
    <path d="M293 203 c9 -2 23 -2 30 0 6 3 -1 5 -18 5 -16 0 -22 -2 -12 -5z" />
    <path d="M1460 188 l-12 -23 18 17 c10 10 15 20 12 24 -4 3 -12 -5 -18 -18z" />
    <path d="M298 183 c7 -3 16 -2 19 1 4 3 -2 6 -13 5 l-19 -1 13 -5z" />
    <path d="M1165 180 c3 -5 8 -10 11 -10 3 0 2 5 -1 10 -3 6 -8 10 -11 10 -3 0
-2 -4 1 -10z" />
    <path d="M1215 180 c-3 -5 -2 -10 4 -10 5 0 13 5 16 10 3 6 2 10 -4 10 -5 0
-13 -4 -16 -10z" />
    <path d="M540 169 c0 -5 11 -9 25 -9 33 0 33 15 0 16 -14 1 -25 -2 -25 -7z" />
    <path d="M920 168 c0 -5 11 -8 25 -8 14 0 25 3 25 8 0 4 -11 7 -25 7 -14 0
-25 -3 -25 -7z" />
  </g>
  <g transform="translate(0.000000,57.000000) scale(0.100000,-0.100000)" fill="#feeae9" stroke="none">
    <path d="M317 413 c-11 -10 -8 -101 3 -108 l10 -6 0 60 c0 62 -1 66 -13 54z" />
    <path d="M540 374 l0 -25 10 6 c6 3 10 15 10 26 0 10 -4 19 -10 19 -5 0 -10
-12 -10 -26z" />
    <path d="M883 393 c4 -3 10 -3 14 0 3 4 0 7 -7 7 -7 0 -10 -3 -7 -7z" />
    <path d="M1020 380 c0 -11 5 -20 10 -20 6 0 10 9 10 20 0 11 -4 20 -10 20 -5
0 -10 -9 -10 -20z" />
    <path d="M1360 385 c0 -8 5 -15 10 -15 6 0 10 7 10 15 0 8 -4 15 -10 15 -5 0
-10 -7 -10 -15z" />
    <path d="M280 376 c0 -9 5 -16 10 -16 6 0 10 4 10 9 0 6 -4 13 -10 16 -5 3
-10 -1 -10 -9z" />
    <path d="M1089 373 c-1 -10 0 -22 1 -28 2 -5 2 -25 1 -43 l-2 -34 11 7 c13 8
13 115 0 115 -5 0 -11 -8 -11 -17z m11 -18 c0 -3 -2 -5 -5 -5 -3 0 -5 2 -5 5
0 3 2 5 5 5 3 0 5 -2 5 -5z" />
    <path d="M370 361 c0 -6 5 -13 10 -16 6 -3 10 1 10 9 0 9 -4 16 -10 16 -5 0
-10 -4 -10 -9z" />
    <path d="M883 363 c4 -3 10 -3 14 0 3 4 0 7 -7 7 -7 0 -10 -3 -7 -7z" />
    <path d="M1440 305 l0 -65 10 0 10 0 0 65 0 65 -10 0 -10 0 0 -65z" />
    <path d="M220 355 c0 -3 2 -5 5 -5 3 0 5 2 5 5 0 3 -2 5 -5 5 -3 0 -5 -2 -5
-5z" />
    <path d="M635 340 c-3 -5 -1 -10 4 -10 6 0 11 5 11 10 0 6 -2 10 -4 10 -3 0
-8 -4 -11 -10z" />
    <path d="M710 340 c0 -5 5 -10 11 -10 5 0 7 5 4 10 -3 6 -8 10 -11 10 -2 0 -4
-4 -4 -10z" />
    <path d="M175 330 c-3 -5 -1 -10 4 -10 6 0 11 5 11 10 0 6 -2 10 -4 10 -3 0
-8 -4 -11 -10z" />
    <path d="M420 330 c0 -5 5 -10 11 -10 5 0 7 5 4 10 -3 6 -8 10 -11 10 -2 0 -4
-4 -4 -10z" />
    <path d="M673 333 c4 -3 10 -3 14 0 3 4 0 7 -7 7 -7 0 -10 -3 -7 -7z" />
    <path d="M1280 331 c0 -6 5 -13 10 -16 6 -3 10 1 10 9 0 9 -4 16 -10 16 -5 0
-10 -4 -10 -9z" />
    <path d="M1360 331 c0 -6 5 -13 10 -16 6 -3 10 1 10 9 0 9 -4 16 -10 16 -5 0
-10 -4 -10 -9z" />
    <path d="M280 314 c0 -8 5 -12 10 -9 6 3 10 10 10 16 0 5 -4 9 -10 9 -5 0 -10
-7 -10 -16z" />
    <path d="M580 319 c0 -5 5 -7 10 -4 6 3 10 8 10 11 0 2 -4 4 -10 4 -5 0 -10
-5 -10 -11z" />
    <path d="M950 316 c0 -2 7 -6 15 -10 8 -3 15 -1 15 4 0 6 -7 10 -15 10 -8 0
-15 -2 -15 -4z" />
    <path d="M250 299 c0 -5 5 -7 10 -4 6 3 10 8 10 11 0 2 -4 4 -10 4 -5 0 -10
-5 -10 -11z" />
    <path d="M345 300 c3 -5 8 -10 11 -10 2 0 4 5 4 10 0 6 -5 10 -11 10 -5 0 -7
-4 -4 -10z" />
    <path d="M850 305 c0 -3 2 -5 5 -5 3 0 5 2 5 5 0 3 -2 5 -5 5 -3 0 -5 -2 -5
-5z" />
    <path d="M1015 300 c-3 -5 -1 -10 4 -10 6 0 11 5 11 10 0 6 -2 10 -4 10 -3 0
-8 -4 -11 -10z" />
    <path d="M1065 300 c3 -5 8 -10 11 -10 2 0 4 5 4 10 0 6 -5 10 -11 10 -5 0 -7
-4 -4 -10z" />
    <path d="M815 290 c3 -5 8 -10 11 -10 3 0 2 5 -1 10 -3 6 -8 10 -11 10 -3 0
-2 -4 1 -10z" />
    <path d="M865 290 c-3 -5 -2 -10 4 -10 5 0 18 -3 28 -7 l18 -7 -14 17 c-15 19
-27 22 -36 7z" />
    <path d="M270 280 c0 -6 -4 -8 -10 -5 -5 3 -10 2 -10 -4 0 -5 9 -9 20 -8 21 1
26 12 10 22 -5 3 -10 1 -10 -5z" />
    <path d="M327 284 c-12 -12 -8 -20 13 -21 11 -1 20 3 20 8 0 6 -4 8 -9 5 -5
-4 -11 -1 -13 5 -2 5 -7 7 -11 3z" />
    <path d="M525 280 c-3 -5 -1 -10 4 -10 6 0 11 5 11 10 0 6 -2 10 -4 10 -3 0
-8 -4 -11 -10z" />
    <path d="M1287 283 c-4 -3 -7 -11 -7 -17 l0 -10 12 12 c6 6 9 14 7 17 -3 3 -9
2 -12 -2z" />
    <path d="M1330 280 c0 -7 3 -10 7 -7 3 4 3 10 0 14 -4 3 -7 0 -7 -7z" />
    <path d="M1367 283 c-4 -3 -7 -11 -7 -17 l0 -10 12 12 c6 6 9 14 7 17 -3 3 -9
2 -12 -2z" />
    <path d="M630 270 c0 -5 5 -10 10 -10 6 0 10 5 10 10 0 6 -4 10 -10 10 -5 0
-10 -4 -10 -10z" />
    <path d="M770 270 c0 -5 5 -10 10 -10 6 0 10 5 10 10 0 6 -4 10 -10 10 -5 0
-10 -4 -10 -10z" />
    <path d="M1003 273 c4 -3 10 -3 14 0 3 4 0 7 -7 7 -7 0 -10 -3 -7 -7z" />
    <path d="M580 260 c0 -5 7 -7 15 -4 8 4 15 8 15 10 0 2 -7 4 -15 4 -8 0 -15
-4 -15 -10z" />
    <path d="M1063 263 c4 -3 10 -3 14 0 3 4 0 7 -7 7 -7 0 -10 -3 -7 -7z" />
    <path d="M646 239 c-19 -19 -17 -37 3 -24 14 8 34 45 24 44 -4 0 -17 -9 -27
-20z m4 -14 c0 -3 -2 -5 -5 -5 -3 0 -5 2 -5 5 0 3 2 5 5 5 3 0 5 -2 5 -5z" />
    <path d="M830 250 c0 -5 5 -10 11 -10 5 0 7 5 4 10 -3 6 -8 10 -11 10 -2 0 -4
-4 -4 -10z" />
    <path d="M175 240 c3 -5 8 -10 11 -10 2 0 4 5 4 10 0 6 -5 10 -11 10 -5 0 -7
-4 -4 -10z" />
    <path d="M280 240 c0 -5 5 -10 11 -10 5 0 7 5 4 10 -3 6 -8 10 -11 10 -2 0 -4
-4 -4 -10z" />
    <path d="M315 240 c-3 -5 -1 -10 4 -10 6 0 11 5 11 10 0 6 -2 10 -4 10 -3 0
-8 -4 -11 -10z" />
    <path d="M420 239 c0 -5 5 -7 10 -4 6 3 10 8 10 11 0 2 -4 4 -10 4 -5 0 -10
-5 -10 -11z" />
    <path d="M540 204 l0 -45 10 6 c6 3 10 24 10 46 0 21 -4 39 -10 39 -5 0 -10
-21 -10 -46z" />
    <path d="M710 226 c0 -9 5 -16 10 -16 6 0 10 4 10 9 0 6 -4 13 -10 16 -5 3
-10 -1 -10 -9z" />
    <path d="M1022 205 c-2 -19 2 -35 8 -35 5 0 10 16 10 35 0 19 -4 35 -8 35 -4
0 -9 -16 -10 -35z" />
    <path d="M1207 234 c-4 -4 -7 -14 -7 -23 l0 -15 11 11 c6 6 10 16 7 23 -2 6
-7 8 -11 4z" />
    <path d="M376 213 l-7 -18 12 12 c7 7 10 15 7 18 -3 3 -9 -2 -12 -12z" />
    <path d="M1120 219 c0 -5 5 -7 10 -4 6 3 10 8 10 11 0 2 -4 4 -10 4 -5 0 -10
-5 -10 -11z" />
    <path d="M1275 220 c-3 -5 1 -10 9 -10 9 0 16 5 16 10 0 6 -4 10 -9 10 -6 0
-13 -4 -16 -10z" />
    <path d="M1360 221 c0 -6 5 -13 10 -16 6 -3 10 1 10 9 0 9 -4 16 -10 16 -5 0
-10 -4 -10 -9z" />
    <path d="M225 210 c3 -5 8 -10 11 -10 3 0 2 5 -1 10 -3 6 -8 10 -11 10 -3 0
-2 -4 1 -10z" />
    <path d="M260 216 c0 -2 7 -7 16 -10 l15 -6 -6 10 c-6 10 -25 14 -25 6z" />
    <path d="M325 210 l-6 -10 15 6 c18 7 21 14 7 14 -6 0 -13 -4 -16 -10z" />
    <path d="M830 200 c0 -5 5 -10 11 -10 5 0 7 5 4 10 -3 6 -8 10 -11 10 -2 0 -4
-4 -4 -10z" />
    <path d="M1073 185 c20 -14 47 -10 47 7 l0 10 -14 -11 -14 -12 -7 11 c-3 5
-12 10 -18 10 -7 0 -4 -7 6 -15z" />
    <path d="M1220 185 l-13 -15 17 6 c9 3 16 10 16 15 0 13 -6 11 -20 -6z" />
    <path d="M635 170 c3 -5 8 -10 11 -10 2 0 4 5 4 10 0 6 -5 10 -11 10 -5 0 -7
-4 -4 -10z" />
    <path d="M710 169 c0 -5 5 -7 10 -4 6 3 10 8 10 11 0 2 -4 4 -10 4 -5 0 -10
-5 -10 -11z" />
  </g>
  <g transform="translate(0.000000,57.000000) scale(0.100000,-0.100000)" fill="#fddfdc" stroke="none">
    <path d="M205 380 c-10 -11 -13 -20 -8 -20 13 0 38 29 31 35 -3 3 -13 -4 -23
-15z" />
    <path d="M1331 384 l1 -19 5 13 c3 7 2 16 -1 19 -3 4 -6 -2 -5 -13z" />
    <path d="M1365 390 c3 -5 8 -10 11 -10 2 0 4 5 4 10 0 6 -5 10 -11 10 -5 0 -7
-4 -4 -10z" />
    <path d="M264 378 l-7 -11 13 8 13 8 -6 -17 -7 -17 10 6 c13 8 13 35 1 35 -6
0 -13 -5 -17 -12z" />
    <path d="M400 370 c0 -5 5 -10 11 -10 5 0 7 5 4 10 -3 6 -8 10 -11 10 -2 0 -4
-4 -4 -10z" />
    <path d="M623 343 c-12 -2 -27 -12 -34 -21 l-13 -17 14 13 c8 6 22 12 31 12
10 0 21 5 24 10 3 6 5 9 3 9 -2 -1 -13 -4 -25 -6z" />
    <path d="M718 338 c5 -5 16 -8 23 -6 l13 4 -23 7 -24 6 11 -11z" />
    <path d="M1330 331 l0 -13 -20 5 c-11 3 -20 1 -20 -4 0 -13 37 -11 45 2 4 6 4
13 1 16 -3 4 -6 1 -6 -6z" />
    <path d="M225 320 c-3 -5 -1 -10 4 -10 6 0 11 5 11 10 0 6 -2 10 -4 10 -3 0
-8 -4 -11 -10z" />
    <path d="M370 320 c0 -4 9 -10 20 -13 11 -3 20 -2 20 3 0 4 -9 10 -20 13 -11
3 -20 2 -20 -3z" />
    <path d="M528 323 c7 -3 16 -2 19 1 4 3 -2 6 -13 5 l-19 -1 13 -5z" />
    <path d="M795 321 l-30 -7 17 -6 c9 -4 24 0 35 7 10 8 16 14 13 13 -3 0 -18
-3 -35 -7z" />
    <path d="M930 325 c0 -3 2 -5 5 -5 3 0 5 2 5 5 0 3 -2 5 -5 5 -3 0 -5 -2 -5
-5z" />
    <path d="M1370 318 c0 -5 9 -8 19 -8 11 0 22 3 24 8 3 4 -6 7 -19 7 -13 0 -24
-3 -24 -7z" />
    <path d="M973 300 c1 -21 12 -26 22 -10 3 6 1 10 -5 10 -6 0 -8 5 -5 10 3 6 2
10 -4 10 -5 0 -9 -9 -8 -20z" />
    <path d="M533 303 c4 -3 10 -3 14 0 3 4 0 7 -7 7 -7 0 -10 -3 -7 -7z" />
    <path d="M630 286 c0 -15 4 -25 9 -22 10 7 9 31 -2 42 -4 4 -7 -5 -7 -20z" />
    <path d="M713 294 c-3 -8 -1 -20 6 -27 l11 -11 0 27 c0 30 -7 35 -17 11z" />
    <path d="M920 300 c0 -7 3 -10 7 -7 3 4 3 10 0 14 -4 3 -7 0 -7 -7z" />
    <path d="M593 293 c4 -3 10 -3 14 0 3 4 0 7 -7 7 -7 0 -10 -3 -7 -7z" />
    <path d="M860 280 c0 -5 9 -10 20 -10 11 0 20 5 20 10 0 6 -9 10 -20 10 -11 0
-20 -4 -20 -10z" />
    <path d="M940 285 c0 -3 2 -5 5 -5 3 0 5 2 5 5 0 3 -2 5 -5 5 -3 0 -5 -2 -5
-5z" />
    <path d="M1410 280 c0 -7 3 -10 7 -7 3 4 3 10 0 14 -4 3 -7 0 -7 -7z" />
    <path d="M800 275 c0 -3 2 -5 5 -5 3 0 5 2 5 5 0 3 -2 5 -5 5 -3 0 -5 -2 -5
-5z" />
    <path d="M1330 270 c0 -7 3 -10 7 -7 3 4 3 10 0 14 -4 3 -7 0 -7 -7z" />
    <path d="M755 260 c-3 -5 -2 -10 4 -10 5 0 13 5 16 10 3 6 2 10 -4 10 -5 0
-13 -4 -16 -10z" />
    <path d="M225 250 c3 -5 8 -10 11 -10 2 0 4 5 4 10 0 6 -5 10 -11 10 -5 0 -7
-4 -4 -10z" />
    <path d="M370 249 c0 -5 5 -7 10 -4 6 3 10 8 10 11 0 2 -4 4 -10 4 -5 0 -10
-5 -10 -11z" />
    <path d="M520 250 c0 -7 3 -10 7 -7 3 4 3 10 0 14 -4 3 -7 0 -7 -7z" />
    <path d="M837 248 c2 -5 24 -8 49 -8 24 0 44 3 44 8 0 4 -22 7 -49 7 -27 0
-47 -3 -44 -7z" />
    <path d="M1207 238 l-6 -23 13 18 14 18 5 -13 5 -13 1 18 c1 25 -26 21 -32 -5z" />
    <path d="M960 240 c0 -5 7 -7 15 -4 8 4 15 8 15 10 0 2 -7 4 -15 4 -8 0 -15
-4 -15 -10z" />
    <path d="M1450 246 c0 -2 7 -9 15 -16 l15 -12 0 10 c0 5 -7 12 -15 16 -8 3
-15 4 -15 2z" />
    <path d="M1258 218 c5 -5 16 -8 23 -6 l13 4 -23 7 -24 6 11 -11z" />
    <path d="M1333 205 l2 -30 55 -1 55 -1 -50 6 -49 6 -8 25 -7 25 2 -30z" />
    <path d="M205 190 c10 -11 20 -18 23 -15 7 6 -18 35 -31 35 -5 0 -2 -9 8 -20z" />
    <path d="M390 195 c-20 -24 -6 -28 15 -5 10 11 13 20 8 20 -6 0 -16 -7 -23
-15z" />
    <path d="M837 198 c2 -5 24 -8 49 -8 24 0 44 3 44 8 0 4 -22 7 -49 7 -27 0
-47 -3 -44 -7z" />
    <path d="M1463 193 c4 -3 10 -3 14 0 3 4 0 7 -7 7 -7 0 -10 -3 -7 -7z" />
    <path d="M1188 173 c6 -2 18 -2 25 0 6 3 1 5 -13 5 -14 0 -19 -2 -12 -5z" />
  </g>
  <g transform="translate(0.000000,57.000000) scale(0.100000,-0.100000)" fill="#f7756b" stroke="none">
    <path d="M320 360 c0 -35 3 -60 7 -57 7 8 5 108 -3 116 -2 2 -4 -24 -4 -59z" />
    <path d="M542 375 c0 -16 2 -22 5 -12 2 9 2 23 0 30 -3 6 -5 -1 -5 -18z" />
    <path d="M890 395 c0 -3 2 -5 5 -5 3 0 5 2 5 5 0 3 -2 5 -5 5 -3 0 -5 -2 -5
-5z" />
    <path d="M1022 380 c0 -14 2 -19 5 -12 2 6 2 18 0 25 -3 6 -5 1 -5 -13z" />
    <path d="M1371 384 l1 -19 5 13 c3 7 2 16 -1 19 -3 4 -6 -2 -5 -13z" />
    <path d="M199 373 l-14 -18 18 14 c16 13 21 21 13 21 -2 0 -10 -8 -17 -17z" />
    <path d="M281 374 l1 -19 5 13 c3 7 2 16 -1 19 -3 4 -6 -2 -5 -13z" />
    <path d="M1091 374 l1 -19 5 13 c3 7 2 16 -1 19 -3 4 -6 -2 -5 -13z" />
    <path d="M405 370 c3 -5 8 -10 11 -10 3 0 2 5 -1 10 -3 6 -8 10 -11 10 -3 0
-2 -4 1 -10z" />
    <path d="M370 361 c0 -6 4 -12 8 -15 5 -3 9 1 9 9 0 8 -4 15 -9 15 -4 0 -8 -4
-8 -9z" />
    <path d="M890 365 c0 -3 2 -5 5 -5 3 0 5 2 5 5 0 3 -2 5 -5 5 -3 0 -5 -2 -5
-5z" />
    <path d="M1453 305 c0 -38 2 -53 4 -32 2 20 2 52 0 70 -2 17 -4 1 -4 -38z" />
    <path d="M743 333 c4 -3 10 -3 14 0 3 4 0 7 -7 7 -7 0 -10 -3 -7 -7z" />
    <path d="M1290 330 c0 -7 3 -10 7 -7 3 4 3 10 0 14 -4 3 -7 0 -7 -7z" />
    <path d="M1370 330 c0 -7 3 -10 7 -7 3 4 3 10 0 14 -4 3 -7 0 -7 -7z" />
    <path d="M281 314 l1 -19 5 13 c3 7 2 16 -1 19 -3 4 -6 -2 -5 -13z" />
    <path d="M990 320 l-15 -10 12 0 c6 0 15 5 18 10 8 12 4 12 -15 0z" />
    <path d="M763 313 c4 -3 10 -3 14 0 3 4 0 7 -7 7 -7 0 -10 -3 -7 -7z" />
    <path d="M1092 300 c0 -14 2 -19 5 -12 2 6 2 18 0 25 -3 6 -5 1 -5 -13z" />
    <path d="M1014 298 l-7 -11 11 7 c7 4 12 9 12 12 0 8 -9 4 -16 -8z" />
    <path d="M267 277 c-3 -8 1 -14 8 -14 7 0 11 6 8 14 -6 16 -10 16 -16 0z" />
    <path d="M327 277 c-3 -8 1 -14 8 -14 7 0 11 6 8 14 -6 16 -10 16 -16 0z" />
    <path d="M524 278 l-7 -11 11 7 c7 4 12 9 12 12 0 8 -9 4 -16 -8z" />
    <path d="M1290 280 c0 -7 3 -10 7 -7 3 4 3 10 0 14 -4 3 -7 0 -7 -7z" />
    <path d="M1370 280 c0 -7 3 -10 7 -7 3 4 3 10 0 14 -4 3 -7 0 -7 -7z" />
    <path d="M651 227 l-13 -22 18 17 c10 10 16 20 13 22 -3 3 -11 -5 -18 -17z" />
    <path d="M536 232 c-2 -4 -1 -23 4 -42 l8 -35 1 43 c1 41 -3 50 -13 34z" />
    <path d="M690 235 c0 -3 2 -5 5 -5 3 0 5 2 5 5 0 3 -2 5 -5 5 -3 0 -5 -2 -5
-5z" />
    <path d="M711 224 l1 -19 5 13 c3 7 2 16 -1 19 -3 4 -6 -2 -5 -13z" />
    <path d="M1016 203 c9 -38 14 -42 14 -10 0 14 -5 29 -10 32 l-11 7 7 -29z" />
    <path d="M1285 220 c-3 -5 -1 -10 4 -10 6 0 11 5 11 10 0 6 -2 10 -4 10 -3 0
-8 -4 -11 -10z" />
    <path d="M1371 214 l1 -19 5 13 c3 7 2 16 -1 19 -3 4 -6 -2 -5 -13z" />
    <path d="M399 193 l-14 -18 18 14 c16 13 21 21 13 21 -2 0 -10 -8 -17 -17z" />
    <path d="M1065 190 c3 -5 8 -10 11 -10 3 0 2 5 -1 10 -3 6 -8 10 -11 10 -3 0
-2 -4 1 -10z" />
    <path d="M1110 190 c0 -7 3 -10 7 -7 3 4 3 10 0 14 -4 3 -7 0 -7 -7z" />
    <path d="M1230 190 c0 -7 3 -10 7 -7 3 4 3 10 0 14 -4 3 -7 0 -7 -7z" />
    <path d="M1330 191 c0 -6 4 -13 10 -16 l10 -6 -6 15 c-7 18 -14 21 -14 7z" />
    <path d="M640 170 c0 -7 3 -10 7 -7 3 4 3 10 0 14 -4 3 -7 0 -7 -7z" />
    <path d="M710 170 c0 -7 3 -10 7 -7 3 4 3 10 0 14 -4 3 -7 0 -7 -7z" />
  </g>
  <g transform="translate(0.000000,57.000000) scale(0.100000,-0.100000)" fill="#f9a19a" stroke="none">
    <path d="M273 413 c4 -3 10 -3 14 0 3 4 0 7 -7 7 -7 0 -10 -3 -7 -7z" />
    <path d="M582 375 c0 -16 2 -22 5 -12 2 9 2 23 0 30 -3 6 -5 -1 -5 -18z" />
    <path d="M640 350 c0 -7 3 -10 7 -7 3 4 3 10 0 14 -4 3 -7 0 -7 -7z" />
    <path d="M710 350 c0 -7 3 -10 7 -7 3 4 3 10 0 14 -4 3 -7 0 -7 -7z" />
    <path d="M385 340 c3 -5 8 -10 11 -10 3 0 2 5 -1 10 -3 6 -8 10 -11 10 -3 0
-2 -4 1 -10z" />
    <path d="M1090 340 c0 -7 3 -10 7 -7 3 4 3 10 0 14 -4 3 -7 0 -7 -7z" />
    <path d="M1000 330 c0 -7 3 -10 7 -7 3 4 3 10 0 14 -4 3 -7 0 -7 -7z" />
    <path d="M224 318 l-7 -11 11 7 c12 7 16 16 8 16 -3 0 -8 -5 -12 -12z" />
    <path d="M375 320 c3 -5 8 -10 11 -10 3 0 2 5 -1 10 -3 6 -8 10 -11 10 -3 0
-2 -4 1 -10z" />
    <path d="M520 325 c0 -3 2 -5 5 -5 3 0 5 2 5 5 0 3 -2 5 -5 5 -3 0 -5 -2 -5
-5z" />
    <path d="M1021 314 l1 -19 5 13 c3 7 2 16 -1 19 -3 4 -6 -2 -5 -13z" />
    <path d="M580 315 c0 -3 2 -5 5 -5 3 0 5 2 5 5 0 3 -2 5 -5 5 -3 0 -5 -2 -5
-5z" />
    <path d="M280 305 c0 -3 2 -5 5 -5 3 0 5 2 5 5 0 3 -2 5 -5 5 -3 0 -5 -2 -5
-5z" />
    <path d="M320 305 c0 -3 2 -5 5 -5 3 0 5 2 5 5 0 3 -2 5 -5 5 -3 0 -5 -2 -5
-5z" />
    <path d="M402 290 c0 -14 2 -19 5 -12 2 6 2 18 0 25 -3 6 -5 1 -5 -13z" />
    <path d="M430 305 c0 -3 2 -5 5 -5 3 0 5 2 5 5 0 3 -2 5 -5 5 -3 0 -5 -2 -5
-5z" />
    <path d="M920 305 c0 -3 2 -5 5 -5 3 0 5 2 5 5 0 3 -2 5 -5 5 -3 0 -5 -2 -5
-5z" />
    <path d="M201 284 l1 -19 5 13 c3 7 2 16 -1 19 -3 4 -6 -2 -5 -13z" />
    <path d="M221 284 l1 -19 5 13 c3 7 2 16 -1 19 -3 4 -6 -2 -5 -13z" />
    <path d="M381 284 l1 -19 5 13 c3 7 2 16 -1 19 -3 4 -6 -2 -5 -13z" />
    <path d="M600 295 c0 -3 2 -5 5 -5 3 0 5 2 5 5 0 3 -2 5 -5 5 -3 0 -5 -2 -5
-5z" />
    <path d="M640 295 c0 -3 2 -5 5 -5 3 0 5 2 5 5 0 3 -2 5 -5 5 -3 0 -5 -2 -5
-5z" />
    <path d="M711 284 l1 -19 5 13 c3 7 2 16 -1 19 -3 4 -6 -2 -5 -13z" />
    <path d="M270 285 c0 -3 2 -5 5 -5 3 0 5 2 5 5 0 3 -2 5 -5 5 -3 0 -5 -2 -5
-5z" />
    <path d="M330 285 c0 -3 2 -5 5 -5 3 0 5 2 5 5 0 3 -2 5 -5 5 -3 0 -5 -2 -5
-5z" />
    <path d="M1090 280 c0 -7 3 -10 7 -7 3 4 3 10 0 14 -4 3 -7 0 -7 -7z" />
    <path d="M670 275 c0 -3 2 -5 5 -5 3 0 5 2 5 5 0 3 -2 5 -5 5 -3 0 -5 -2 -5
-5z" />
    <path d="M759 263 l-14 -16 23 12 c23 12 28 21 13 21 -5 0 -15 -7 -22 -17z" />
    <path d="M170 265 c0 -3 2 -5 5 -5 3 0 5 2 5 5 0 3 -2 5 -5 5 -3 0 -5 -2 -5
-5z" />
    <path d="M280 265 c0 -3 2 -5 5 -5 3 0 5 2 5 5 0 3 -2 5 -5 5 -3 0 -5 -2 -5
-5z" />
    <path d="M320 265 c0 -3 2 -5 5 -5 3 0 5 2 5 5 0 3 -2 5 -5 5 -3 0 -5 -2 -5
-5z" />
    <path d="M583 215 c0 -33 2 -45 4 -27 2 18 2 45 0 60 -2 15 -4 0 -4 -33z" />
    <path d="M225 250 c3 -5 8 -10 11 -10 3 0 2 5 -1 10 -3 6 -8 10 -11 10 -3 0
-2 -4 1 -10z" />
    <path d="M359 233 l-24 -28 28 24 c15 14 27 26 27 28 0 8 -8 1 -31 -24z" />
    <path d="M1090 255 c0 -3 2 -5 5 -5 3 0 5 2 5 5 0 3 -2 5 -5 5 -3 0 -5 -2 -5
-5z" />
    <path d="M1130 250 c0 -7 3 -10 7 -7 3 4 3 10 0 14 -4 3 -7 0 -7 -7z" />
    <path d="M1230 255 c0 -3 2 -5 5 -5 3 0 5 2 5 5 0 3 -2 5 -5 5 -3 0 -5 -2 -5
-5z" />
    <path d="M524 240 c2 -16 20 -14 24 2 l4 13 -10 -14 -10 -13 -5 11 -5 12 2
-11z" />
    <path d="M963 205 c0 -27 2 -38 4 -22 2 15 2 37 0 50 -2 12 -4 0 -4 -28z" />
    <path d="M384 228 l-7 -11 11 7 c12 7 16 16 8 16 -3 0 -8 -5 -12 -12z" />
    <path d="M773 233 c4 -3 10 -3 14 0 3 4 0 7 -7 7 -7 0 -10 -3 -7 -7z" />
    <path d="M1470 230 c0 -7 3 -10 7 -7 3 4 3 10 0 14 -4 3 -7 0 -7 -7z" />
    <path d="M255 220 c3 -5 8 -10 11 -10 3 0 2 5 -1 10 -3 6 -8 10 -11 10 -3 0
-2 -4 1 -10z" />
    <path d="M830 225 c0 -3 2 -5 5 -5 3 0 5 2 5 5 0 3 -2 5 -5 5 -3 0 -5 -2 -5
-5z" />
    <path d="M1201 214 l1 -19 5 13 c3 7 2 16 -1 19 -3 4 -6 -2 -5 -13z" />
    <path d="M1230 195 c0 -3 2 -5 5 -5 3 0 5 2 5 5 0 3 -2 5 -5 5 -3 0 -5 -2 -5
-5z" />
    <path d="M1173 173 c4 -3 10 -3 14 0 3 4 0 7 -7 7 -7 0 -10 -3 -7 -7z" />
    <path d="M1348 173 c7 -3 16 -2 19 1 4 3 -2 6 -13 5 l-19 -1 13 -5z" />
    <path d="M1438 173 c7 -3 16 -2 19 1 4 3 -2 6 -13 5 l-19 -1 13 -5z" />
    <path d="M273 153 c4 -3 10 -3 14 0 3 4 0 7 -7 7 -7 0 -10 -3 -7 -7z" />
    <path d="M323 153 c4 -3 10 -3 14 0 3 4 0 7 -7 7 -7 0 -10 -3 -7 -7z" />
  </g>
  <g transform="translate(0.000000,57.000000) scale(0.100000,-0.100000)" fill="#fcd0cc" stroke="none">
    <path d="M751 374 l1 -19 5 13 c3 7 2 16 -1 19 -3 4 -6 -2 -5 -13z" />
    <path d="M253 373 c4 -3 10 -3 14 0 3 4 0 7 -7 7 -7 0 -10 -3 -7 -7z" />
    <path d="M375 370 c-3 -5 -1 -10 4 -10 6 0 11 5 11 10 0 6 -2 10 -4 10 -3 0
-8 -4 -11 -10z" />
    <path d="M1253 295 c0 -44 2 -61 4 -37 2 23 2 59 0 80 -2 20 -4 1 -4 -43z" />
    <path d="M580 355 c0 -3 2 -5 5 -5 3 0 5 2 5 5 0 3 -2 5 -5 5 -3 0 -5 -2 -5
-5z" />
    <path d="M1001 344 l1 -19 5 13 c3 7 2 16 -1 19 -3 4 -6 -2 -5 -13z" />
    <path d="M1130 355 c0 -3 2 -5 5 -5 3 0 5 2 5 5 0 3 -2 5 -5 5 -3 0 -5 -2 -5
-5z" />
    <path d="M1160 355 c0 -3 2 -5 5 -5 3 0 5 2 5 5 0 3 -2 5 -5 5 -3 0 -5 -2 -5
-5z" />
    <path d="M335 330 c-3 -5 -2 -10 4 -10 5 0 13 5 16 10 3 6 2 10 -4 10 -5 0
-13 -4 -16 -10z" />
    <path d="M390 335 c0 -3 2 -5 5 -5 3 0 5 2 5 5 0 3 -2 5 -5 5 -3 0 -5 -2 -5
-5z" />
    <path d="M603 333 c4 -3 10 -3 14 0 3 4 0 7 -7 7 -7 0 -10 -3 -7 -7z" />
    <path d="M740 335 c0 -3 2 -5 5 -5 3 0 5 2 5 5 0 3 -2 5 -5 5 -3 0 -5 -2 -5
-5z" />
    <path d="M800 335 c0 -3 2 -5 5 -5 3 0 5 2 5 5 0 3 -2 5 -5 5 -3 0 -5 -2 -5
-5z" />
    <path d="M950 335 c0 -3 2 -5 5 -5 3 0 5 2 5 5 0 3 -2 5 -5 5 -3 0 -5 -2 -5
-5z" />
    <path d="M1410 330 c0 -7 3 -10 7 -7 3 4 3 10 0 14 -4 3 -7 0 -7 -7z" />
    <path d="M1060 325 c0 -3 2 -5 5 -5 3 0 5 2 5 5 0 3 -2 5 -5 5 -3 0 -5 -2 -5
-5z" />
    <path d="M200 315 c0 -3 2 -5 5 -5 3 0 5 2 5 5 0 3 -2 5 -5 5 -3 0 -5 -2 -5
-5z" />
    <path d="M770 315 c0 -3 2 -5 5 -5 3 0 5 2 5 5 0 3 -2 5 -5 5 -3 0 -5 -2 -5
-5z" />
    <path d="M980 315 c0 -3 2 -5 5 -5 3 0 5 2 5 5 0 3 -2 5 -5 5 -3 0 -5 -2 -5
-5z" />
    <path d="M345 300 c3 -5 8 -10 11 -10 3 0 2 5 -1 10 -3 6 -8 10 -11 10 -3 0
-2 -4 1 -10z" />
    <path d="M1020 305 c0 -3 2 -5 5 -5 3 0 5 2 5 5 0 3 -2 5 -5 5 -3 0 -5 -2 -5
-5z" />
    <path d="M763 293 c4 -3 10 -3 14 0 3 4 0 7 -7 7 -7 0 -10 -3 -7 -7z" />
    <path d="M965 280 c4 -6 11 -8 16 -5 14 9 11 15 -7 15 -8 0 -12 -5 -9 -10z" />
    <path d="M640 275 c0 -3 2 -5 5 -5 3 0 5 2 5 5 0 3 -2 5 -5 5 -3 0 -5 -2 -5
-5z" />
    <path d="M995 271 c-3 -5 -2 -12 3 -15 5 -3 9 1 9 9 0 17 -3 19 -12 6z" />
    <path d="M1410 270 c0 -7 3 -10 7 -7 3 4 3 10 0 14 -4 3 -7 0 -7 -7z" />
    <path d="M200 255 c0 -3 2 -5 5 -5 3 0 5 2 5 5 0 3 -2 5 -5 5 -3 0 -5 -2 -5
-5z" />
    <path d="M400 255 c0 -3 2 -5 5 -5 3 0 5 2 5 5 0 3 -2 5 -5 5 -3 0 -5 -2 -5
-5z" />
    <path d="M830 255 c0 -3 2 -5 5 -5 3 0 5 2 5 5 0 3 -2 5 -5 5 -3 0 -5 -2 -5
-5z" />
    <path d="M540 245 c0 -3 2 -5 5 -5 3 0 5 2 5 5 0 3 -2 5 -5 5 -3 0 -5 -2 -5
-5z" />
    <path d="M1011 231 l-13 -8 10 -7 c5 -3 12 1 16 9 6 17 6 18 -13 6z" />
    <path d="M1090 235 c0 -3 2 -5 5 -5 3 0 5 2 5 5 0 3 -2 5 -5 5 -3 0 -5 -2 -5
-5z" />
    <path d="M1231 224 l1 -19 5 13 c3 7 2 16 -1 19 -3 4 -6 -2 -5 -13z" />
    <path d="M1470 225 c0 -3 2 -5 5 -5 3 0 5 2 5 5 0 3 -2 5 -5 5 -3 0 -5 -2 -5
-5z" />
    <path d="M1073 213 c4 -3 10 -3 14 0 3 4 0 7 -7 7 -7 0 -10 -3 -7 -7z" />
    <path d="M1283 213 c4 -3 10 -3 14 0 3 4 0 7 -7 7 -7 0 -10 -3 -7 -7z" />
    <path d="M830 205 c0 -3 2 -5 5 -5 3 0 5 2 5 5 0 3 -2 5 -5 5 -3 0 -5 -2 -5
-5z" />
    <path d="M1200 205 c0 -3 2 -5 5 -5 3 0 5 2 5 5 0 3 -2 5 -5 5 -3 0 -5 -2 -5
-5z" />
    <path d="M1330 200 c0 -7 3 -10 7 -7 3 4 3 10 0 14 -4 3 -7 0 -7 -7z" />
    <path d="M1370 205 c0 -3 2 -5 5 -5 3 0 5 2 5 5 0 3 -2 5 -5 5 -3 0 -5 -2 -5
-5z" />
    <path d="M1420 205 c0 -3 2 -5 5 -5 3 0 5 2 5 5 0 3 -2 5 -5 5 -3 0 -5 -2 -5
-5z" />
    <path d="M265 190 c3 -5 8 -10 11 -10 3 0 2 5 -1 10 -3 6 -8 10 -11 10 -3 0
-2 -4 1 -10z" />
    <path d="M334 188 l-7 -11 11 7 c7 4 12 9 12 12 0 8 -9 4 -16 -8z" />
    <path d="M1110 195 c0 -3 2 -5 5 -5 3 0 5 2 5 5 0 3 -2 5 -5 5 -3 0 -5 -2 -5
-5z" />
    <path d="M830 170 c0 -7 3 -10 7 -7 3 4 3 10 0 14 -4 3 -7 0 -7 -7z" />
    <path d="M1180 175 c0 -3 2 -5 5 -5 3 0 5 2 5 5 0 3 -2 5 -5 5 -3 0 -5 -2 -5
-5z" />
    <path d="M1210 175 c0 -3 2 -5 5 -5 3 0 5 2 5 5 0 3 -2 5 -5 5 -3 0 -5 -2 -5
-5z" />
  </g>
  <g transform="translate(0.000000,57.000000) scale(0.100000,-0.100000)" fill="#fbc2be" stroke="none">
    <path d="M243 403 c4 -3 10 -3 14 0 3 4 0 7 -7 7 -7 0 -10 -3 -7 -7z" />
    <path d="M280 385 c0 -3 2 -5 5 -5 3 0 5 2 5 5 0 3 -2 5 -5 5 -3 0 -5 -2 -5
-5z" />
    <path d="M750 365 c0 -3 2 -5 5 -5 3 0 5 2 5 5 0 3 -2 5 -5 5 -3 0 -5 -2 -5
-5z" />
    <path d="M540 355 c0 -3 2 -5 5 -5 3 0 5 2 5 5 0 3 -2 5 -5 5 -3 0 -5 -2 -5
-5z" />
    <path d="M1000 355 c0 -3 2 -5 5 -5 3 0 5 2 5 5 0 3 -2 5 -5 5 -3 0 -5 -2 -5
-5z" />
    <path d="M243 343 c4 -3 10 -3 14 0 3 4 0 7 -7 7 -7 0 -10 -3 -7 -7z" />
    <path d="M174 328 l-7 -11 11 7 c12 7 16 16 8 16 -3 0 -8 -5 -12 -12z" />
    <path d="M210 335 c0 -3 2 -5 5 -5 3 0 5 2 5 5 0 3 -2 5 -5 5 -3 0 -5 -2 -5
-5z" />
    <path d="M425 330 c3 -5 8 -10 11 -10 3 0 2 5 -1 10 -3 6 -8 10 -11 10 -3 0
-2 -4 1 -10z" />
    <path d="M600 335 c0 -3 2 -5 5 -5 3 0 5 2 5 5 0 3 -2 5 -5 5 -3 0 -5 -2 -5
-5z" />
    <path d="M1020 325 c0 -3 2 -5 5 -5 3 0 5 2 5 5 0 3 -2 5 -5 5 -3 0 -5 -2 -5
-5z" />
    <path d="M395 310 c3 -5 8 -10 11 -10 3 0 2 5 -1 10 -3 6 -8 10 -11 10 -3 0
-2 -4 1 -10z" />
    <path d="M800 315 c0 -3 2 -5 5 -5 3 0 5 2 5 5 0 3 -2 5 -5 5 -3 0 -5 -2 -5
-5z" />
    <path d="M254 298 l-7 -11 11 7 c12 7 16 16 8 16 -3 0 -8 -5 -12 -12z" />
    <path d="M673 303 c4 -3 10 -3 14 0 3 4 0 7 -7 7 -7 0 -10 -3 -7 -7z" />
    <path d="M1063 303 c4 -3 10 -3 14 0 3 4 0 7 -7 7 -7 0 -10 -3 -7 -7z" />
    <path d="M530 285 c0 -3 2 -5 5 -5 3 0 5 2 5 5 0 3 -2 5 -5 5 -3 0 -5 -2 -5
-5z" />
    <path d="M883 283 c4 -3 10 -3 14 0 3 4 0 7 -7 7 -7 0 -10 -3 -7 -7z" />
    <path d="M966 278 c3 -5 10 -6 15 -3 13 9 11 12 -6 12 -8 0 -12 -4 -9 -9z" />
    <path d="M1090 285 c0 -3 2 -5 5 -5 3 0 5 2 5 5 0 3 -2 5 -5 5 -3 0 -5 -2 -5
-5z" />
    <path d="M1290 285 c0 -3 2 -5 5 -5 3 0 5 2 5 5 0 3 -2 5 -5 5 -3 0 -5 -2 -5
-5z" />
    <path d="M1370 285 c0 -3 2 -5 5 -5 3 0 5 2 5 5 0 3 -2 5 -5 5 -3 0 -5 -2 -5
-5z" />
    <path d="M255 270 c3 -5 8 -10 11 -10 3 0 2 5 -1 10 -3 6 -8 10 -11 10 -3 0
-2 -4 1 -10z" />
    <path d="M344 268 l-7 -11 11 7 c7 4 12 9 12 12 0 8 -9 4 -16 -8z" />
    <path d="M580 265 c0 -3 2 -5 5 -5 3 0 5 2 5 5 0 3 -2 5 -5 5 -3 0 -5 -2 -5
-5z" />
    <path d="M600 265 c0 -3 2 -5 5 -5 3 0 5 2 5 5 0 3 -2 5 -5 5 -3 0 -5 -2 -5
-5z" />
    <path d="M1060 265 c0 -3 2 -5 5 -5 3 0 5 2 5 5 0 3 -2 5 -5 5 -3 0 -5 -2 -5
-5z" />
    <path d="M664 248 l-7 -11 11 7 c7 4 12 9 12 12 0 8 -9 4 -16 -8z" />
    <path d="M920 255 c0 -3 2 -5 5 -5 3 0 5 2 5 5 0 3 -2 5 -5 5 -3 0 -5 -2 -5
-5z" />
    <path d="M175 240 c3 -5 8 -10 11 -10 3 0 2 5 -1 10 -3 6 -8 10 -11 10 -3 0
-2 -4 1 -10z" />
    <path d="M285 240 c3 -5 8 -10 11 -10 3 0 2 5 -1 10 -3 6 -8 10 -11 10 -3 0
-2 -4 1 -10z" />
    <path d="M314 238 l-7 -11 11 7 c7 4 12 9 12 12 0 8 -9 4 -16 -8z" />
    <path d="M424 238 l-7 -11 11 7 c12 7 16 16 8 16 -3 0 -8 -5 -12 -12z" />
    <path d="M520 245 c0 -3 2 -5 5 -5 3 0 5 2 5 5 0 3 -2 5 -5 5 -3 0 -5 -2 -5
-5z" />
    <path d="M960 245 c0 -3 2 -5 5 -5 3 0 5 2 5 5 0 3 -2 5 -5 5 -3 0 -5 -2 -5
-5z" />
    <path d="M980 245 c0 -3 2 -5 5 -5 3 0 5 2 5 5 0 3 -2 5 -5 5 -3 0 -5 -2 -5
-5z" />
    <path d="M210 235 c0 -3 2 -5 5 -5 3 0 5 2 5 5 0 3 -2 5 -5 5 -3 0 -5 -2 -5
-5z" />
    <path d="M355 230 c-3 -5 -1 -10 4 -10 6 0 11 5 11 10 0 6 -2 10 -4 10 -3 0
-8 -4 -11 -10z" />
    <path d="M390 235 c0 -3 2 -5 5 -5 3 0 5 2 5 5 0 3 -2 5 -5 5 -3 0 -5 -2 -5
-5z" />
    <path d="M710 235 c0 -3 2 -5 5 -5 3 0 5 2 5 5 0 3 -2 5 -5 5 -3 0 -5 -2 -5
-5z" />
    <path d="M1020 235 c0 -3 2 -5 5 -5 3 0 5 2 5 5 0 3 -2 5 -5 5 -3 0 -5 -2 -5
-5z" />
    <path d="M243 223 c4 -3 10 -3 14 0 3 4 0 7 -7 7 -7 0 -10 -3 -7 -7z" />
    <path d="M525 220 c-3 -5 -1 -10 4 -10 6 0 11 5 11 10 0 6 -2 10 -4 10 -3 0
-8 -4 -11 -10z" />
    <path d="M1124 218 l-7 -11 11 7 c7 4 12 9 12 12 0 8 -9 4 -16 -8z" />
    <path d="M1230 215 c0 -3 2 -5 5 -5 3 0 5 2 5 5 0 3 -2 5 -5 5 -3 0 -5 -2 -5
-5z" />
    <path d="M920 205 c0 -3 2 -5 5 -5 3 0 5 2 5 5 0 3 -2 5 -5 5 -3 0 -5 -2 -5
-5z" />
    <path d="M253 193 c4 -3 10 -3 14 0 3 4 0 7 -7 7 -7 0 -10 -3 -7 -7z" />
    <path d="M343 193 c4 -3 10 -3 14 0 3 4 0 7 -7 7 -7 0 -10 -3 -7 -7z" />
    <path d="M1060 195 c0 -3 2 -5 5 -5 3 0 5 2 5 5 0 3 -2 5 -5 5 -3 0 -5 -2 -5
-5z" />
    <path d="M1330 195 c0 -3 2 -5 5 -5 3 0 5 2 5 5 0 3 -2 5 -5 5 -3 0 -5 -2 -5
-5z" />
    <path d="M920 170 c0 -7 3 -10 7 -7 3 4 3 10 0 14 -4 3 -7 0 -7 -7z" />
    <path d="M1360 175 c0 -3 2 -5 5 -5 3 0 5 2 5 5 0 3 -2 5 -5 5 -3 0 -5 -2 -5
-5z" />
    <path d="M1430 175 c0 -3 2 -5 5 -5 3 0 5 2 5 5 0 3 -2 5 -5 5 -3 0 -5 -2 -5
-5z" />
    <path d="M243 163 c4 -3 10 -3 14 0 3 4 0 7 -7 7 -7 0 -10 -3 -7 -7z" />
    <path d="M353 163 c4 -3 10 -3 14 0 3 4 0 7 -7 7 -7 0 -10 -3 -7 -7z" />
  </g>
  <g transform="translate(0.000000,57.000000) scale(0.100000,-0.100000)" fill="#f6665b" stroke="none">
    <path d="M270 415 c0 -3 2 -5 5 -5 3 0 5 2 5 5 0 3 -2 5 -5 5 -3 0 -5 -2 -5
-5z" />
    <path d="M320 415 c0 -3 2 -5 5 -5 3 0 5 2 5 5 0 3 -2 5 -5 5 -3 0 -5 -2 -5
-5z" />
    <path d="M240 405 c0 -3 2 -5 5 -5 3 0 5 2 5 5 0 3 -2 5 -5 5 -3 0 -5 -2 -5
-5z" />
    <path d="M214 388 l-7 -11 11 7 c12 7 16 16 8 16 -3 0 -8 -5 -12 -12z" />
    <path d="M260 375 c0 -3 2 -5 5 -5 3 0 5 2 5 5 0 3 -2 5 -5 5 -3 0 -5 -2 -5
-5z" />
    <path d="M190 365 c0 -3 2 -5 5 -5 3 0 5 2 5 5 0 3 -2 5 -5 5 -3 0 -5 -2 -5
-5z" />
    <path d="M410 365 c0 -3 2 -5 5 -5 3 0 5 2 5 5 0 3 -2 5 -5 5 -3 0 -5 -2 -5
-5z" />
    <path d="M170 325 c0 -3 2 -5 5 -5 3 0 5 2 5 5 0 3 -2 5 -5 5 -3 0 -5 -2 -5
-5z" />
    <path d="M430 325 c0 -3 2 -5 5 -5 3 0 5 2 5 5 0 3 -2 5 -5 5 -3 0 -5 -2 -5
-5z" />
    <path d="M383 313 c4 -3 10 -3 14 0 3 4 0 7 -7 7 -7 0 -10 -3 -7 -7z" />
    <path d="M260 305 c0 -3 2 -5 5 -5 3 0 5 2 5 5 0 3 -2 5 -5 5 -3 0 -5 -2 -5
-5z" />
    <path d="M340 305 c0 -3 2 -5 5 -5 3 0 5 2 5 5 0 3 -2 5 -5 5 -3 0 -5 -2 -5
-5z" />
    <path d="M760 295 c0 -3 2 -5 5 -5 3 0 5 2 5 5 0 3 -2 5 -5 5 -3 0 -5 -2 -5
-5z" />
    <path d="M984 288 l-7 -11 11 7 c7 4 12 9 12 12 0 8 -9 4 -16 -8z" />
    <path d="M873 283 c4 -3 10 -3 14 0 3 4 0 7 -7 7 -7 0 -10 -3 -7 -7z" />
    <path d="M1000 275 c0 -3 2 -5 5 -5 3 0 5 2 5 5 0 3 -2 5 -5 5 -3 0 -5 -2 -5
-5z" />
    <path d="M260 265 c0 -3 2 -5 5 -5 3 0 5 2 5 5 0 3 -2 5 -5 5 -3 0 -5 -2 -5
-5z" />
    <path d="M340 265 c0 -3 2 -5 5 -5 3 0 5 2 5 5 0 3 -2 5 -5 5 -3 0 -5 -2 -5
-5z" />
    <path d="M300 255 c0 -3 2 -5 5 -5 3 0 5 2 5 5 0 3 -2 5 -5 5 -3 0 -5 -2 -5
-5z" />
    <path d="M670 255 c0 -3 2 -5 5 -5 3 0 5 2 5 5 0 3 -2 5 -5 5 -3 0 -5 -2 -5
-5z" />
    <path d="M170 245 c0 -3 2 -5 5 -5 3 0 5 2 5 5 0 3 -2 5 -5 5 -3 0 -5 -2 -5
-5z" />
    <path d="M430 245 c0 -3 2 -5 5 -5 3 0 5 2 5 5 0 3 -2 5 -5 5 -3 0 -5 -2 -5
-5z" />
    <path d="M1005 220 c3 -5 8 -10 11 -10 3 0 2 5 -1 10 -3 6 -8 10 -11 10 -3 0
-2 -4 1 -10z" />
    <path d="M1130 225 c0 -3 2 -5 5 -5 3 0 5 2 5 5 0 3 -2 5 -5 5 -3 0 -5 -2 -5
-5z" />
    <path d="M1290 215 c0 -3 2 -5 5 -5 3 0 5 2 5 5 0 3 -2 5 -5 5 -3 0 -5 -2 -5
-5z" />
    <path d="M205 190 c10 -11 20 -20 23 -20 3 0 -3 9 -13 20 -10 11 -20 20 -23
20 -3 0 3 -9 13 -20z" />
    <path d="M280 205 c0 -3 2 -5 5 -5 3 0 5 2 5 5 0 3 -2 5 -5 5 -3 0 -5 -2 -5
-5z" />
    <path d="M320 205 c0 -3 2 -5 5 -5 3 0 5 2 5 5 0 3 -2 5 -5 5 -3 0 -5 -2 -5
-5z" />
    <path d="M410 205 c0 -3 2 -5 5 -5 3 0 5 2 5 5 0 3 -2 5 -5 5 -3 0 -5 -2 -5
-5z" />
    <path d="M260 195 c0 -3 2 -5 5 -5 3 0 5 2 5 5 0 3 -2 5 -5 5 -3 0 -5 -2 -5
-5z" />
    <path d="M340 195 c0 -3 2 -5 5 -5 3 0 5 2 5 5 0 3 -2 5 -5 5 -3 0 -5 -2 -5
-5z" />
    <path d="M1470 195 c0 -3 2 -5 5 -5 3 0 5 2 5 5 0 3 -2 5 -5 5 -3 0 -5 -2 -5
-5z" />
    <path d="M384 178 l-7 -11 11 7 c12 7 16 16 8 16 -3 0 -8 -5 -12 -12z" />
    <path d="M1450 175 c0 -3 2 -5 5 -5 3 0 5 2 5 5 0 3 -2 5 -5 5 -3 0 -5 -2 -5
-5z" />
    <path d="M240 165 c0 -3 2 -5 5 -5 3 0 5 2 5 5 0 3 -2 5 -5 5 -3 0 -5 -2 -5
-5z" />
    <path d="M360 165 c0 -3 2 -5 5 -5 3 0 5 2 5 5 0 3 -2 5 -5 5 -3 0 -5 -2 -5
-5z" />
    <path d="M580 165 c0 -3 2 -5 5 -5 3 0 5 2 5 5 0 3 -2 5 -5 5 -3 0 -5 -2 -5
-5z" />
    <path d="M830 165 c0 -3 2 -5 5 -5 3 0 5 2 5 5 0 3 -2 5 -5 5 -3 0 -5 -2 -5
-5z" />
    <path d="M960 165 c0 -3 2 -5 5 -5 3 0 5 2 5 5 0 3 -2 5 -5 5 -3 0 -5 -2 -5
-5z" />
    <path d="M270 155 c0 -3 2 -5 5 -5 3 0 5 2 5 5 0 3 -2 5 -5 5 -3 0 -5 -2 -5
-5z" />
    <path d="M330 155 c0 -3 2 -5 5 -5 3 0 5 2 5 5 0 3 -2 5 -5 5 -3 0 -5 -2 -5
-5z" />
  </g>
  <g transform="translate(0.000000,57.000000) scale(0.100000,-0.100000)" fill="#f54f42" stroke="none">
    <path d="M220 395 c0 -3 2 -5 5 -5 3 0 5 2 5 5 0 3 -2 5 -5 5 -3 0 -5 -2 -5
-5z" />
    <path d="M374 368 l-7 -11 11 7 c12 7 16 16 8 16 -3 0 -8 -5 -12 -12z" />
    <path d="M240 345 c0 -3 2 -5 5 -5 3 0 5 2 5 5 0 3 -2 5 -5 5 -3 0 -5 -2 -5
-5z" />
    <path d="M334 328 l-7 -11 11 7 c7 4 12 9 12 12 0 8 -9 4 -16 -8z" />
    <path d="M220 315 c0 -3 2 -5 5 -5 3 0 5 2 5 5 0 3 -2 5 -5 5 -3 0 -5 -2 -5
-5z" />
    <path d="M380 315 c0 -3 2 -5 5 -5 3 0 5 2 5 5 0 3 -2 5 -5 5 -3 0 -5 -2 -5
-5z" />
    <path d="M530 305 c0 -3 2 -5 5 -5 3 0 5 2 5 5 0 3 -2 5 -5 5 -3 0 -5 -2 -5
-5z" />
    <path d="M1070 305 c0 -3 2 -5 5 -5 3 0 5 2 5 5 0 3 -2 5 -5 5 -3 0 -5 -2 -5
-5z" />
    <path d="M880 285 c0 -3 2 -5 5 -5 3 0 5 2 5 5 0 3 -2 5 -5 5 -3 0 -5 -2 -5
-5z" />
    <path d="M764 268 l-7 -11 11 7 c7 4 12 9 12 12 0 8 -9 4 -16 -8z" />
    <path d="M220 255 c0 -3 2 -5 5 -5 3 0 5 2 5 5 0 3 -2 5 -5 5 -3 0 -5 -2 -5
-5z" />
    <path d="M380 255 c0 -3 2 -5 5 -5 3 0 5 2 5 5 0 3 -2 5 -5 5 -3 0 -5 -2 -5
-5z" />
    <path d="M280 245 c0 -3 2 -5 5 -5 3 0 5 2 5 5 0 3 -2 5 -5 5 -3 0 -5 -2 -5
-5z" />
    <path d="M320 245 c0 -3 2 -5 5 -5 3 0 5 2 5 5 0 3 -2 5 -5 5 -3 0 -5 -2 -5
-5z" />
    <path d="M240 225 c0 -3 2 -5 5 -5 3 0 5 2 5 5 0 3 -2 5 -5 5 -3 0 -5 -2 -5
-5z" />
    <path d="M360 225 c0 -3 2 -5 5 -5 3 0 5 2 5 5 0 3 -2 5 -5 5 -3 0 -5 -2 -5
-5z" />
    <path d="M523 213 c4 -3 10 -3 14 0 3 4 0 7 -7 7 -7 0 -10 -3 -7 -7z" />
    <path d="M1070 215 c0 -3 2 -5 5 -5 3 0 5 2 5 5 0 3 -2 5 -5 5 -3 0 -5 -2 -5
-5z" />
    <path d="M220 175 c0 -3 2 -5 5 -5 3 0 5 2 5 5 0 3 -2 5 -5 5 -3 0 -5 -2 -5
-5z" />
    <path d="M380 175 c0 -3 2 -5 5 -5 3 0 5 2 5 5 0 3 -2 5 -5 5 -3 0 -5 -2 -5
-5z" />
    <path d="M1340 175 c0 -3 2 -5 5 -5 3 0 5 2 5 5 0 3 -2 5 -5 5 -3 0 -5 -2 -5
-5z" />
    <path d="M540 165 c0 -3 2 -5 5 -5 3 0 5 2 5 5 0 3 -2 5 -5 5 -3 0 -5 -2 -5
-5z" />
    <path d="M600 165 c0 -3 2 -5 5 -5 3 0 5 2 5 5 0 3 -2 5 -5 5 -3 0 -5 -2 -5
-5z" />
    <path d="M640 165 c0 -3 2 -5 5 -5 3 0 5 2 5 5 0 3 -2 5 -5 5 -3 0 -5 -2 -5
-5z" />
    <path d="M710 165 c0 -3 2 -5 5 -5 3 0 5 2 5 5 0 3 -2 5 -5 5 -3 0 -5 -2 -5
-5z" />
    <path d="M750 165 c0 -3 2 -5 5 -5 3 0 5 2 5 5 0 3 -2 5 -5 5 -3 0 -5 -2 -5
-5z" />
    <path d="M790 165 c0 -3 2 -5 5 -5 3 0 5 2 5 5 0 3 -2 5 -5 5 -3 0 -5 -2 -5
-5z" />
    <path d="M920 165 c0 -3 2 -5 5 -5 3 0 5 2 5 5 0 3 -2 5 -5 5 -3 0 -5 -2 -5
-5z" />
  </g>
</svg>